<svg xmlns="http://www.w3.org/2000/svg" width="162.842" height="162.807" viewBox="0 0 162.842 162.807">
  <g id="Component_22_2" data-name="Component 22 – 2" transform="translate(0.797 0.794)">
    <g id="Group_30" data-name="Group 30" transform="translate(25.211 75.566)">
      <path id="Path_68" data-name="Path 68" d="M671.28,380.7h6.736q4.55,0,6.685,1.546a5.387,5.387,0,0,1,2.133,4.669,5.058,5.058,0,0,1-1.3,3.553,6.343,6.343,0,0,1-3.8,1.822v.1a7.424,7.424,0,0,1,4.326,1.856,5.426,5.426,0,0,1,1.386,3.956,6.353,6.353,0,0,1-2.251,5.224,9.88,9.88,0,0,1-6.384,1.831H671.28Zm1.714,10.935H678.4a8.637,8.637,0,0,0,5.031-1.15,4.172,4.172,0,0,0,1.57-3.6,3.884,3.884,0,0,0-1.772-3.56,10.1,10.1,0,0,0-5.283-1.109h-4.955Zm0,1.512v10.6h5.778q6.819,0,6.82-5.544,0-5.055-7.19-5.056Z" transform="translate(-671.28 -380.704)" fill="#061c2c"/>
      <path id="Path_69" data-name="Path 69" d="M688.942,393.948v-1.377h7.979v1.377Z" transform="translate(-667.243 -377.991)" fill="#061c2c"/>
      <path id="Path_70" data-name="Path 70" d="M701.2,380.7h6.736q4.55,0,6.685,1.546a5.387,5.387,0,0,1,2.133,4.669,5.057,5.057,0,0,1-1.3,3.553,6.34,6.34,0,0,1-3.8,1.822v.1a7.424,7.424,0,0,1,4.326,1.856,5.431,5.431,0,0,1,1.385,3.956,6.345,6.345,0,0,1-2.251,5.224,9.874,9.874,0,0,1-6.382,1.831H701.2Zm1.714,10.935h5.408a8.635,8.635,0,0,0,5.031-1.15,4.169,4.169,0,0,0,1.57-3.6,3.881,3.881,0,0,0-1.772-3.56,10.1,10.1,0,0,0-5.283-1.109h-4.955Zm0,1.512v10.6H708.7q6.819,0,6.82-5.544,0-5.055-7.19-5.056Z" transform="translate(-664.44 -380.704)" fill="#061c2c"/>
      <path id="Path_71" data-name="Path 71" d="M718.759,380.7h6.735q4.552,0,6.686,1.546a5.387,5.387,0,0,1,2.133,4.669,5.059,5.059,0,0,1-1.3,3.553,6.336,6.336,0,0,1-3.8,1.822v.1a7.424,7.424,0,0,1,4.325,1.856,5.427,5.427,0,0,1,1.386,3.956,6.345,6.345,0,0,1-2.251,5.224,9.876,9.876,0,0,1-6.382,1.831h-7.525Zm1.713,10.935h5.409a8.627,8.627,0,0,0,5.03-1.15,4.166,4.166,0,0,0,1.571-3.6,3.882,3.882,0,0,0-1.773-3.56,10.092,10.092,0,0,0-5.282-1.109h-4.956Zm0,1.512v10.6h5.778q6.82,0,6.82-5.544,0-5.055-7.188-5.056Z" transform="translate(-660.428 -380.704)" fill="#061c2c"/>
      <path id="Path_72" data-name="Path 72" d="M749.734,405.262H736.313V380.7h13.421v1.579H738.027v9.288h11.052v1.58H738.027v10.532h11.707Z" transform="translate(-656.416 -380.704)" fill="#061c2c"/>
      <path id="Path_73" data-name="Path 73" d="M765.184,405.262H751.763V380.7h13.421v1.579H753.476v9.288h11.052v1.58H753.476v10.532h11.708Z" transform="translate(-652.884 -380.704)" fill="#061c2c"/>
    </g>
    <g id="Group_31" data-name="Group 31" transform="translate(24.487 41.606)">
      <path id="Path_74" data-name="Path 74" d="M670.691,377.908V353.35H675.9v20.257h9.96v4.3Z" transform="translate(-670.691 -352.997)" fill="#29a4e6"/>
      <path id="Path_75" data-name="Path 75" d="M699.952,377.908H685.81V353.35h14.142v4.266h-8.935v5.392h8.314v4.267h-8.314v6.332h8.935Z" transform="translate(-667.235 -352.997)" fill="#29a4e6"/>
      <path id="Path_76" data-name="Path 76" d="M715.935,353.35h5.257l-8.348,24.558h-5.677l-8.331-24.558h5.257l4.619,14.613q.387,1.294.8,3.015t.512,2.395a43.334,43.334,0,0,1,1.261-5.41Z" transform="translate(-664.258 -352.997)" fill="#29a4e6"/>
      <path id="Path_77" data-name="Path 77" d="M732.432,377.908H718.289V353.35h14.143v4.266H723.5v5.392h8.315v4.267H723.5v6.332h8.937Z" transform="translate(-659.812 -352.997)" fill="#29a4e6"/>
      <path id="Path_78" data-name="Path 78" d="M733.271,377.908V353.35h5.207v20.257h9.96v4.3Z" transform="translate(-656.387 -352.997)" fill="#29a4e6"/>
      <path id="Path_79" data-name="Path 79" d="M766.973,377.973H749.807v-3.611l6.165-6.233q2.737-2.8,3.578-3.889a8.5,8.5,0,0,0,1.209-2.008,5.117,5.117,0,0,0,.37-1.914,2.791,2.791,0,0,0-.814-2.2,3.163,3.163,0,0,0-2.176-.722,6.27,6.27,0,0,0-2.772.655,14.3,14.3,0,0,0-2.8,1.865l-2.822-3.343a18.4,18.4,0,0,1,3.008-2.183,11.051,11.051,0,0,1,2.6-.983,13.322,13.322,0,0,1,3.157-.344,9.363,9.363,0,0,1,4.065.839,6.483,6.483,0,0,1,2.737,2.352,6.26,6.26,0,0,1,.974,3.461,8.473,8.473,0,0,1-.6,3.182,12.242,12.242,0,0,1-1.848,3.049,44.95,44.95,0,0,1-4.409,4.451l-3.157,2.973v.235h10.7Z" transform="translate(-652.623 -353.063)" fill="#29a4e6"/>
    </g>
    <g id="Group_32" data-name="Group 32" transform="translate(23.861 109.631)">
      <path id="Path_80" data-name="Path 80" d="M675.53,410.455a2.466,2.466,0,0,0-2.113,1.025,4.776,4.776,0,0,0-.748,2.859q0,3.813,2.861,3.814a9.038,9.038,0,0,0,2.909-.6v2.027a8.057,8.057,0,0,1-3.134.586,4.78,4.78,0,0,1-3.806-1.51,6.382,6.382,0,0,1-1.318-4.332,7.062,7.062,0,0,1,.647-3.116,4.665,4.665,0,0,1,1.86-2.051,5.5,5.5,0,0,1,2.842-.714,7.665,7.665,0,0,1,3.338.8l-.78,1.965a12.594,12.594,0,0,0-1.286-.53A3.827,3.827,0,0,0,675.53,410.455Z" transform="translate(-670.181 -408.427)" fill="#29a4e6"/>
      <path id="Path_81" data-name="Path 81" d="M689.255,414.3a6.191,6.191,0,0,1-1.4,4.352,6.084,6.084,0,0,1-8.048,0,6.212,6.212,0,0,1-1.4-4.368,6.123,6.123,0,0,1,1.409-4.348,5.264,5.264,0,0,1,4.035-1.5,5.191,5.191,0,0,1,4.021,1.514A6.2,6.2,0,0,1,689.255,414.3Zm-8.32,0a4.761,4.761,0,0,0,.725,2.877,2.536,2.536,0,0,0,2.167.967q2.9,0,2.894-3.844t-2.878-3.853a2.55,2.55,0,0,0-2.175.972A4.728,4.728,0,0,0,680.935,414.3Z" transform="translate(-668.303 -408.43)" fill="#29a4e6"/>
      <path id="Path_82" data-name="Path 82" d="M699.209,419.979h-3.073l-4.96-8.626h-.071q.149,2.285.15,3.26v5.367h-2.161v-11.4h3.049l4.951,8.54h.055q-.116-2.223-.117-3.143v-5.4h2.176Z" transform="translate(-665.858 -408.397)" fill="#29a4e6"/>
      <path id="Path_83" data-name="Path 83" d="M704.2,419.979h-2.418v-9.39h-3.1v-2.012h8.61v2.012h-3.1Z" transform="translate(-663.665 -408.397)" fill="#29a4e6"/>
      <path id="Path_84" data-name="Path 84" d="M709.479,415.6v4.375h-2.417v-11.4h3.322a5.681,5.681,0,0,1,3.438.847,3.37,3.37,0,0,1,.561,4.36,3.659,3.659,0,0,1-1.566,1.227q2.574,3.846,3.354,4.969h-2.683l-2.722-4.375Zm0-1.966h.78a2.985,2.985,0,0,0,1.692-.382,1.363,1.363,0,0,0,.545-1.2,1.247,1.247,0,0,0-.557-1.154,3.387,3.387,0,0,0-1.727-.343h-.733Z" transform="translate(-661.751 -408.397)" fill="#29a4e6"/>
      <path id="Path_85" data-name="Path 85" d="M715.578,419.979v-11.4H718v11.4Z" transform="translate(-659.805 -408.397)" fill="#29a4e6"/>
      <path id="Path_86" data-name="Path 86" d="M719.816,408.576h3.549a6.834,6.834,0,0,1,3.52.69,2.4,2.4,0,0,1,1.1,2.2,2.773,2.773,0,0,1-.48,1.677,1.917,1.917,0,0,1-1.275.788V414a2.513,2.513,0,0,1,1.564.906,2.941,2.941,0,0,1,.479,1.762,2.9,2.9,0,0,1-1.127,2.434,4.871,4.871,0,0,1-3.06.874h-4.267Zm2.418,4.516h1.4a2.562,2.562,0,0,0,1.423-.3,1.135,1.135,0,0,0,.441-1.006,1.011,1.011,0,0,0-.479-.94,3.094,3.094,0,0,0-1.517-.284h-1.271Zm0,1.918v2.972h1.575a2.346,2.346,0,0,0,1.476-.382,1.416,1.416,0,0,0,.474-1.171q0-1.419-2.027-1.419Z" transform="translate(-658.836 -408.397)" fill="#29a4e6"/>
      <path id="Path_87" data-name="Path 87" d="M737.781,408.576v7.378a4.25,4.25,0,0,1-.565,2.215,3.7,3.7,0,0,1-1.634,1.458,5.849,5.849,0,0,1-2.527.507,4.84,4.84,0,0,1-3.415-1.127,4,4,0,0,1-1.216-3.085v-7.347h2.409v6.98a2.932,2.932,0,0,0,.53,1.935,2.209,2.209,0,0,0,1.756.616,2.154,2.154,0,0,0,1.72-.62,2.935,2.935,0,0,0,.533-1.945v-6.965Z" transform="translate(-656.869 -408.397)" fill="#29a4e6"/>
      <path id="Path_88" data-name="Path 88" d="M742.853,419.979h-2.418v-9.39H737.34v-2.012h8.61v2.012h-3.1Z" transform="translate(-654.831 -408.397)" fill="#29a4e6"/>
      <path id="Path_89" data-name="Path 89" d="M756.154,414.3a6.186,6.186,0,0,1-1.4,4.352,6.084,6.084,0,0,1-8.048,0,6.218,6.218,0,0,1-1.4-4.368,6.129,6.129,0,0,1,1.408-4.348,5.268,5.268,0,0,1,4.036-1.5,5.189,5.189,0,0,1,4.02,1.514A6.2,6.2,0,0,1,756.154,414.3Zm-8.321,0a4.769,4.769,0,0,0,.725,2.877,2.539,2.539,0,0,0,2.168.967q2.893,0,2.893-3.844t-2.877-3.853a2.55,2.55,0,0,0-2.176.972A4.736,4.736,0,0,0,747.833,414.3Z" transform="translate(-653.012 -408.43)" fill="#29a4e6"/>
      <path id="Path_90" data-name="Path 90" d="M758.41,415.6v4.375h-2.418v-11.4h3.322a5.687,5.687,0,0,1,3.44.847,3.377,3.377,0,0,1,.561,4.36,3.669,3.669,0,0,1-1.568,1.227q2.573,3.846,3.353,4.969h-2.682L759.7,415.6Zm0-1.966h.78a2.992,2.992,0,0,0,1.693-.382,1.365,1.365,0,0,0,.545-1.2,1.246,1.246,0,0,0-.558-1.154,3.391,3.391,0,0,0-1.727-.343h-.734Z" transform="translate(-650.567 -408.397)" fill="#29a4e6"/>
    </g>
    <g id="Group_33" data-name="Group 33">
      <path id="Path_91" data-name="Path 91" d="M656.9,430.486a77.234,77.234,0,0,1-5.424-40.794c2.654-19.834,11.325-36.694,26.467-50.071a80.064,80.064,0,0,1,64.276-19.652,80.681,80.681,0,0,1,32.945,12.182,76.5,76.5,0,0,1,11.562,8.987" transform="translate(-650.76 -319.199)" fill="none" stroke="#29a4e6" stroke-miterlimit="10" stroke-width="1.584"/>
      <path id="Path_92" data-name="Path 92" d="M801.407,360.67a77.932,77.932,0,0,1,4.953,19.133,79.52,79.52,0,0,1-3.734,37,78.1,78.1,0,0,1-24.385,35.409,79.251,79.251,0,0,1-26.462,14.743A82.425,82.425,0,0,1,714,469.99a74.793,74.793,0,0,1-31.443-12.109,95.624,95.624,0,0,1-10.25-8.367" transform="translate(-645.833 -309.718)" fill="none" stroke="#29a4e6" stroke-miterlimit="10" stroke-width="1.584"/>
    </g>
  </g>
</svg>
