<svg xmlns="http://www.w3.org/2000/svg" width="50" height="45.763" viewBox="0 0 50 45.763">
  <g id="Group_213" data-name="Group 213" transform="translate(-571 -399.89)">
    <path id="Path_51" data-name="Path 51" d="M577.4,433.855V400.739a.8.8,0,1,0-1.6,0v33.116a5.84,5.84,0,0,0-4.8,5.869,5.609,5.609,0,1,0,11.2,0,5.84,5.84,0,0,0-4.8-5.869Zm-.8,10.106a4.244,4.244,0,1,1,4-4.237,4.129,4.129,0,0,1-4,4.237Zm0,0" fill="#6fadd0"/>
    <path id="Path_52" data-name="Path 52" d="M589.4,423.688v-22.95a.8.8,0,1,0-1.6,0v22.95a5.981,5.981,0,0,0,0,11.727V444.8a.8.8,0,1,0,1.6,0v-9.389a5.981,5.981,0,0,0,0-11.727Zm-.8,10.1a4.244,4.244,0,1,1,4-4.237,4.127,4.127,0,0,1-4,4.237Zm0,0" transform="translate(0.934)" fill="#6fadd0"/>
    <path id="Path_53" data-name="Path 53" d="M601.4,413.516V400.739a.8.8,0,1,0-1.6,0v12.778a5.984,5.984,0,0,0,0,11.731V444.8a.8.8,0,1,0,1.6,0V425.247a5.984,5.984,0,0,0,0-11.731Zm-.8,10.1a4.244,4.244,0,1,1,4-4.237,4.127,4.127,0,0,1-4,4.237Zm0,0" transform="translate(1.867)" fill="#6fadd0"/>
    <path id="Path_54" data-name="Path 54" d="M618.2,409.213a5.833,5.833,0,0,0-4.8-5.864v-2.611a.8.8,0,1,0-1.6,0v2.611a5.981,5.981,0,0,0,0,11.727V444.8a.8.8,0,1,0,1.6,0V415.077a5.838,5.838,0,0,0,4.8-5.863Zm-5.6,4.237a4.244,4.244,0,1,1,4-4.237,4.129,4.129,0,0,1-4,4.237Zm0,0" transform="translate(2.801)" fill="#6fadd0"/>
    <path id="Path_55" data-name="Path 55" d="M613.4,406.288h-1.6a.8.8,0,1,0,0,1.6h1.6a.8.8,0,0,0,0-1.6Zm0,0" transform="translate(2.801)" fill="#6fadd0"/>
    <path id="Path_56" data-name="Path 56" d="M601.4,415.89h-1.6a.8.8,0,1,0,0,1.6h1.6a.8.8,0,0,0,0-1.6Zm0,0" transform="translate(1.782 0.986)" fill="#6fadd0"/>
    <path id="Path_57" data-name="Path 57" d="M601.4,419.089h-1.6a.8.8,0,1,0,0,1.6h1.6a.8.8,0,0,0,0-1.6Zm0,0" transform="translate(1.782 1.183)" fill="#6fadd0"/>
    <path id="Path_58" data-name="Path 58" d="M589.4,425.492h-1.6a.8.8,0,1,0,0,1.6h1.6a.8.8,0,1,0,0-1.6Zm0,0" transform="translate(1.019 1.578)" fill="#6fadd0"/>
    <path id="Path_59" data-name="Path 59" d="M589.4,428.691h-1.6a.8.8,0,1,0,0,1.6h1.6a.8.8,0,1,0,0-1.6Zm0,0" transform="translate(1.019 1.775)" fill="#6fadd0"/>
    <path id="Path_60" data-name="Path 60" d="M577.4,435.089h-1.6a.8.8,0,1,0,0,1.6h1.6a.8.8,0,0,0,0-1.6Zm0,0" transform="translate(0 2.564)" fill="#6fadd0"/>
    <path id="Path_61" data-name="Path 61" d="M577.4,438.288h-1.6a.8.8,0,1,0,0,1.6h1.6a.8.8,0,0,0,0-1.6Zm0,0" transform="translate(0 2.564)" fill="#6fadd0"/>
    <path id="Path_62" data-name="Path 62" d="M613.4,409.492h-1.6a.8.8,0,1,0,0,1.6h1.6a.8.8,0,1,0,0-1.6Zm0,0" transform="translate(2.801 0.592)" fill="#6fadd0"/>
  </g>
</svg>
