<svg xmlns="http://www.w3.org/2000/svg" width="38.154" height="49.781" viewBox="0 0 38.154 49.781">
  <path id="Path_66" data-name="Path 66" d="M614.154,415.314a17.4,17.4,0,0,0-7.564-14.349v-.013l-.121-.081-.008,0-.19-.125c-.373-.247-.758-.474-1.147-.689-.138-.077-.28-.142-.421-.215-.308-.162-.624-.316-.94-.454-.178-.081-.353-.154-.531-.226q-.493-.194-1-.365c-.146-.049-.291-.1-.442-.149-.47-.142-.948-.263-1.43-.369-.142-.028-.283-.049-.425-.077-.385-.073-.77-.13-1.159-.178-.159-.017-.312-.036-.47-.049-.523-.049-1.05-.081-1.576-.081s-1.069.032-1.6.081l-.445.049c-.405.049-.811.109-1.208.187-.13.024-.259.045-.385.073a17.4,17.4,0,0,0-3.014.935c-.1.045-.2.089-.3.13-.406.178-.8.369-1.186.576-.082.04-.167.085-.252.13-.474.263-.94.539-1.393.846l-.357.244,0,.032a18.811,18.811,0,0,0-1.56,1.268l-2.378-2.382-.587.587a20.731,20.731,0,0,0,13.846,35.383v7.5h-8.3v4.148H605.87v-4.148h-8.3v-7.5a20.582,20.582,0,0,0,13.827-6.048l.587-.587-2.382-2.378a17.315,17.315,0,0,0,4.55-11.7Zm-25.919-13.255a15.648,15.648,0,0,1,2.272-1.224l.235-.1c.381-.158.765-.3,1.163-.425.068-.025.142-.049.215-.073.45-.138.916-.255,1.381-.357.077-.017.15-.025.227-.036.389-.078.786-.138,1.186-.183.125-.017.251-.032.381-.04.474-.045.952-.073,1.438-.073s.952.028,1.418.068l.361.036c.454.053.9.117,1.341.206.081.017.158.037.235.057.368.077.733.174,1.093.28.138.04.28.081.418.13.4.13.806.275,1.195.437.106.045.2.093.3.138q.462.207.912.438c.142.077.279.15.421.231.068.036.13.081.2.121a11.276,11.276,0,0,0-5.744,4.217,1.592,1.592,0,0,0-.239.426,1.633,1.633,0,0,0-.3-.248,2.371,2.371,0,0,0-2.318.036l-.121.017c-1.154.125-1.989.223-2.058,1.685a2.054,2.054,0,0,0,.984,1.815,1.992,1.992,0,0,0,.376.174c.017.028.033.061.053.089l.2.279a9.632,9.632,0,0,0-1.207-.226,6.58,6.58,0,0,1-1.439-.32c-1.783-.684-3.1-3.687-4.063-5.878-.183-.421-.361-.822-.535-1.239.008-.159.017-.312.021-.461Zm11.712,18.161a4.162,4.162,0,0,1-1.5-4.74,1.76,1.76,0,0,0-.8-2.2c-.032-.114-.057-.325-.081-.474a4.275,4.275,0,0,0-.376-1.43,1.556,1.556,0,0,0,.457.23c.15.045.191.082.215.15a2.086,2.086,0,0,0,1.309,1.45,1.958,1.958,0,0,0,1.815-.347c.166-.122.194-.146.831.162a5.01,5.01,0,0,0,1.722.555,8.868,8.868,0,0,1,1.126,1.624,5.462,5.462,0,0,0,1.981,2.285c.308.159.117,1.143-.563,2.926-.061.166-.121.319-.174.462a9.358,9.358,0,0,0-1.9,2.168,9.215,9.215,0,0,1-1.628,1.92,7.985,7.985,0,0,1-3.115,1.819c1.17-2.09,2.511-5.043.68-6.563Zm-3.626-12.307-.567.332a.226.226,0,0,1-.13-.077.365.365,0,0,1-.117-.263c0-.016,0-.028,0-.045.154-.02.369-.049.58-.068l.393-.045.121-.057c.62-.291.831-.215.831-.215s.174.174.153.956l-.007.263a2,2,0,0,0-.624-.125.769.769,0,0,0-.142-.2Zm.372,2.835a1.829,1.829,0,0,0-.361-.234,4.252,4.252,0,0,0-.453-.195l.239-.04a4.174,4.174,0,0,1,.45-.052,1.662,1.662,0,0,0,.126.522Zm-10.006-7.571c.011.032.016.068.028.1.166.353.336.741.514,1.151,1.139,2.6,2.557,5.83,4.987,6.761a7.808,7.808,0,0,0,1.794.414,5.07,5.07,0,0,1,1.585.4.4.4,0,0,0,.064.037,2.4,2.4,0,0,1,.263.992,1.958,1.958,0,0,0,.851,1.665c.085.045.154.121.138.162a5.784,5.784,0,0,0,1.977,6.645c.365.3.714,1.284-1.069,4.472a1.7,1.7,0,0,0,2.062,2.427,10.94,10.94,0,0,0,3.585-2.176,11.157,11.157,0,0,0,1.9-2.228,7.376,7.376,0,0,1,1.718-1.932l.239-.2.077-.234c.061-.178.142-.389.231-.62.579-1.519,1.551-4.068-.223-4.987a4.25,4.25,0,0,1-1.316-1.652,10.281,10.281,0,0,0-1.353-1.933,1.713,1.713,0,0,0-1.025-.49,3.842,3.842,0,0,1-1.179-.41,2.216,2.216,0,0,0-2.548,0,.379.379,0,0,1-.3.1c-.078-.025-.178-.125-.24-.336a1.771,1.771,0,0,0-1.22-1.245,1.046,1.046,0,0,0-.036-.793l.1.012a1.723,1.723,0,0,0,1.661-.458,1.849,1.849,0,0,0,.222-1.815.112.112,0,0,1,.021-.081,9.749,9.749,0,0,1,5.332-3.788,1.589,1.589,0,0,0,.64-.414,15.755,15.755,0,1,1-19.486.458Zm17.521,42.007v.826H589.276v-.826Zm5.417-15.8a19.083,19.083,0,0,1-26.961-26.961l1.195,1.2a17.392,17.392,0,0,0,24.571,24.57Zm0,0" transform="translate(-576 -397.89)" fill="#6fadd0"/>
</svg>
