<svg xmlns="http://www.w3.org/2000/svg" width="41.483" height="40.771" viewBox="0 0 41.483 40.771">
  <g id="Group_211" data-name="Group 211" transform="translate(-571 -397.89)">
    <path id="Path_47" data-name="Path 47" d="M601.684,400.75a3.584,3.584,0,0,0-3.507-2.86.716.716,0,0,0,0,1.432,2.144,2.144,0,1,1,0,4.288.716.716,0,0,0,0,1.432,3.584,3.584,0,0,0,3.507-2.86h9.371v5H572.432v-5h12.157a.716.716,0,1,0,0-1.432h-1.3a2.142,2.142,0,1,1,2.015,2.86.716.716,0,1,0,0,1.432,3.576,3.576,0,1,0-3.5-4.292H571v37.911h41.483V400.75Zm-9.227,7.869h8.585V417.2h-8.585Zm8.585,18.6h-8.585v-8.585h8.585Zm-18.6-8.585h8.58v8.585h-8.58Zm0-10.013h8.58V417.2h-8.58Zm-10.013.716v-.716h8.58V417.2h-8.58Zm0,9.3h8.58v8.585h-8.58Zm0,18.6v-8.585h8.58v8.585Zm10.013,0v-8.585h8.58v8.585Zm10.013,0v-8.585h8.585v8.585Zm18.6,0H602.47v-8.585h8.585Zm0-10.013H602.47v-8.585h8.585ZM602.47,417.2v-8.585h8.585V417.2Zm0,0" fill="#6fadd0"/>
    <path id="Path_48" data-name="Path 48" d="M591.665,399.219a1.99,1.99,0,0,1,0,3.979.665.665,0,0,0,0,1.329,3.319,3.319,0,1,0,0-6.637.665.665,0,0,0,0,1.329Zm0,0" transform="translate(-1.97)" fill="#6fadd0"/>
    <path id="Path_49" data-name="Path 49" d="M596.466,399.219a1.99,1.99,0,0,1,0,3.979.665.665,0,0,0,0,1.329,3.319,3.319,0,0,0,0-6.637.665.665,0,0,0,0,1.329Zm0,0" transform="translate(-2.443)" fill="#6fadd0"/>
    <path id="Path_50" data-name="Path 50" d="M596,428.333a.662.662,0,0,0,.937,0l2.188-2.184,2.185,2.184a.664.664,0,1,0,.939-.94l-2.187-2.185,2.187-2.184a.664.664,0,0,0-.939-.94l-2.185,2.184-2.188-2.184a.664.664,0,0,0-.937.94l2.185,2.184L596,427.393a.666.666,0,0,0,0,.94Zm0,0" transform="translate(-2.295 -2.214)" fill="#6fadd0"/>
  </g>
</svg>
