<svg xmlns="http://www.w3.org/2000/svg" width="31.835" height="59.632" viewBox="0 0 31.835 59.632">
  <g id="Group_219" data-name="Group 219" transform="translate(0.75 71.053)">
    <g id="Group_226" data-name="Group 226" transform="translate(0 -70.303)">
      <g id="Group_206" data-name="Group 206" transform="translate(0 0)">
        <path id="Path_189" data-name="Path 189" d="M-4.465-13.511S10.7-35.868,10.7-44.245A15.168,15.168,0,0,0-4.465-59.412,15.168,15.168,0,0,0-19.632-44.245c0,8.376,15.167,30.734,15.167,30.734" transform="translate(19.632 59.412)" fill="none" stroke="#6faed0" stroke-width="1.5"/>
      </g>
      <g id="Group_207" data-name="Group 207" transform="translate(7.936 7.96)">
        <path id="Path_190" data-name="Path 190" d="M-2.129-4.257A7.232,7.232,0,0,0,5.1-11.489,7.232,7.232,0,0,0-2.129-18.72,7.232,7.232,0,0,0-9.36-11.489,7.232,7.232,0,0,0-2.129-4.257" transform="translate(9.36 18.72)" fill="none" stroke="#6faed0" stroke-width="1.5"/>
      </g>
    </g>
    <path id="Path_192" data-name="Path 192" d="M0,.723H30.334V-6.528H0Z" transform="translate(0 -12.894)" fill="none" stroke="#6faed0" stroke-width="1.5"/>
  </g>
</svg>
