<svg id="Group_25" data-name="Group 25" xmlns="http://www.w3.org/2000/svg" xmlns:xlink="http://www.w3.org/1999/xlink" width="40.078" height="36.355" viewBox="0 0 40.078 36.355">
  <defs>
    <clipPath id="clip-path">
      <rect id="Rectangle_43" data-name="Rectangle 43" width="40.078" height="36.355" fill="#6fadd0"/>
    </clipPath>
  </defs>
  <g id="Group_24" data-name="Group 24" clip-path="url(#clip-path)">
    <path id="Path_63" data-name="Path 63" d="M611.337,424.39l-4.306-17.652a6.3,6.3,0,0,0-5.722-4.873,6.123,6.123,0,0,0-6.409,6.12v3.1H590.52v-3.1a6.123,6.123,0,0,0-6.409-6.12,6.3,6.3,0,0,0-5.722,4.873l-4.305,17.655a8.754,8.754,0,1,0,16.415,4.641.5.5,0,0,0,.021-.107v-6.891H594.9v6.891c0,.036.018.068.021.1a8.754,8.754,0,1,0,16.416-4.641Zm-29.575,11.517a7.293,7.293,0,0,1-6.316-10.95,7.618,7.618,0,0,1,.438-.667c.039-.049.078-.1.118-.153a7.332,7.332,0,0,1,1.247-1.258c.043-.036.086-.064.129-.1a6.953,6.953,0,0,1,.634-.428l.118-.075a7.574,7.574,0,0,1,1.647-.7l.178-.043a6.566,6.566,0,0,1,.7-.142c.075-.01.146-.025.221-.036a7.285,7.285,0,0,1,8.192,7.244c0,.057-.007.114-.011.171l-.007.121v0a7.3,7.3,0,0,1-7.282,7Zm6.7-12.932c-.057-.068-.118-.132-.178-.2-.157-.178-.32-.349-.492-.51-.078-.078-.164-.153-.245-.224-.168-.15-.343-.288-.521-.424-.082-.064-.163-.128-.249-.189-.235-.163-.478-.317-.727-.456-.032-.017-.064-.042-.1-.06a8.646,8.646,0,0,0-.883-.413c-.089-.039-.179-.068-.271-.1-.221-.081-.443-.156-.671-.221-.11-.032-.221-.06-.335-.085-.228-.054-.456-.1-.692-.136-.1-.015-.206-.036-.313-.047a8.827,8.827,0,0,0-1.023-.064c-.278,0-.557.015-.828.039-.114.011-.221.032-.335.047-.153.021-.31.039-.464.068-.135.028-.271.06-.406.093s-.243.057-.36.092c-.146.043-.292.086-.438.136-.1.036-.2.075-.3.11-.153.057-.3.118-.449.185-.089.039-.175.082-.264.128-.15.072-.3.147-.443.224-.078.047-.157.1-.235.147-.146.085-.292.174-.431.267-.036.025-.071.057-.107.081-.168.118-.336.239-.492.368l3.6-14.747a4.832,4.832,0,0,1,4.366-3.764,4.673,4.673,0,0,1,4.888,4.662V423.77a.12.12,0,0,0-.022-.025,8.015,8.015,0,0,0-.581-.77Zm2.06-2.4v-8.031H594.9v8.031Zm5.843,3.194V407.986a4.658,4.658,0,0,1,4.662-4.666c.075,0,.146,0,.221,0a4.832,4.832,0,0,1,4.366,3.764l3.6,14.747a8.382,8.382,0,0,0-1.045-.727c-.075-.047-.146-.093-.217-.136-.15-.081-.3-.156-.453-.228-.086-.042-.168-.085-.256-.124-.147-.068-.3-.129-.45-.185-.1-.039-.2-.075-.3-.11-.146-.05-.292-.1-.442-.14-.118-.032-.239-.06-.357-.089-.135-.033-.271-.068-.41-.093s-.307-.05-.464-.071c-.11-.015-.221-.032-.335-.043-.271-.025-.549-.043-.823-.043a8.075,8.075,0,0,0-1.027.068c-.108.011-.207.029-.314.047-.232.036-.464.078-.692.132l-.331.085c-.228.065-.453.14-.674.222-.089.036-.182.064-.27.1a8.7,8.7,0,0,0-.884.417c-.032.018-.061.039-.1.057q-.374.215-.727.46c-.085.061-.163.125-.249.186-.178.135-.353.277-.52.423l-.246.224c-.171.164-.335.336-.492.51-.057.068-.121.129-.178.2a8.506,8.506,0,0,0-.581.77.084.084,0,0,0-.017.028Zm7.3,12.138a7.3,7.3,0,0,1-7.286-7v0l-.007-.121c0-.057-.006-.114-.006-.171a7.308,7.308,0,0,1,7.3-7.3,6.749,6.749,0,0,1,.891.06c.071.007.146.022.217.032.235.036.471.086.7.142.058.015.118.029.174.047a7.215,7.215,0,0,1,1.647.7c.039.021.075.047.114.068.221.136.435.278.642.435l.121.089a7.553,7.553,0,0,1,1.255,1.266c.036.047.075.1.11.15a6.71,6.71,0,0,1,.445.673,7.286,7.286,0,0,1-6.316,10.944Zm0,0" transform="translate(-573 -401.887)" fill="#6fadd0"/>
  </g>
</svg>
